<svg height='300px' width='300px'  fill="#8c2223" xmlns="http://www.w3.org/2000/svg" xmlns:xlink="http://www.w3.org/1999/xlink" version="1.1" x="0px" y="0px" viewBox="-434 236 90 90" style="enable-background:new -434 236 90 90;" xml:space="preserve"><style type="text/css">
	.st0{fill:none;}
</style><g><g><path class="st0" d="M-372.1,265.6c1.8,3,2.7,6.3,2.7,9.8c0,5.4-1.9,10-5.7,13.8s-8.4,5.7-13.8,5.7c-5.4,0-10-1.9-13.8-5.7    c-3.8-3.8-5.7-8.4-5.7-13.8c0-3.5,0.9-6.8,2.7-9.8c-6.7,3.4-12.2,8.5-16.6,15.4c3.9,6,8.7,10.7,14.5,14.2s12.1,5.3,18.9,5.3    c6.8,0,13.1-1.8,18.9-5.3c5.8-3.5,10.7-8.3,14.5-14.2C-359.9,274.1-365.5,269-372.1,265.6z"></path><path d="M-350.8,278c-4.1-6.6-9.5-12-16.4-16c-6.9-4-14.1-6.1-21.8-6.1c-7.6,0-14.9,2-21.8,6.1c-6.9,4-12.3,9.4-16.4,16    c-0.6,1-0.9,2-0.9,3s0.3,2,0.9,3c4.1,6.6,9.5,12,16.4,16c6.9,4,14.1,6.1,21.8,6.1c7.6,0,14.9-2,21.8-6c6.9-4,12.3-9.4,16.4-16.1    c0.6-1,0.9-2,0.9-3S-350.2,279-350.8,278z M-402.6,275.3c0.4-0.4,0.9-0.6,1.5-0.6s1.1,0.2,1.5,0.6c0.4,0.4,0.6,0.8,0.6,1.3    c0.1,2,0.6,4,1.8,5.6c1.9,2.4,4.3,3.6,7.2,3.6c0.6,0,1.1,0.2,1.5,0.6c0.4,0.4,0.6,0.9,0.6,1.5c0,0.6-0.2,1.1-0.6,1.5    c-0.4,0.4-0.9,0.6-1.5,0.6c-3.6,0-6.8-1.3-9.3-3.9c-2.6-2.6-3.9-5.7-3.9-9.3C-403.2,276.2-403,275.8-402.6,275.3z M-370.1,295.2    c-5.8,3.5-12.1,5.3-18.9,5.3c-6.8,0-13.1-1.8-18.9-5.3c-5.8-3.5-10.7-8.3-14.5-14.2c4.4-6.9,10-12,16.6-15.4    c-1.8,3-2.7,6.3-2.7,9.8c0,5.4,1.9,10,5.7,13.8c3.8,3.8,8.4,5.7,13.8,5.7c5.4,0,10-1.9,13.8-5.7c3.8-3.8,5.7-8.4,5.7-13.8    c0-3.5-0.9-6.8-2.7-9.8c6.6,3.4,12.2,8.5,16.6,15.4C-359.4,287-364.2,291.7-370.1,295.2z"></path></g></g></svg>