<svg height='300px' width='300px'  fill="#8c2223" xmlns="http://www.w3.org/2000/svg" data-name="Layer 1" viewBox="0 0 100 100" x="0px" y="0px"><title>Dollar</title><path d="M58.9292,46.85486V21.9895c7.93091,2.00086,13.75293,6.50263,13.75293,11.45777a4,4,0,0,0,8,0c0-9.436-9.03589-17.19422-21.75293-19.69837V8a3,3,0,0,0-6,0v4.98584c-.96314-.05853-1.939-.0918-2.92871-.0918-.99,0-1.96607.03333-2.92969.09186V8a3,3,0,0,0-6,0v5.749C28.354,16.2533,19.31787,24.01141,19.31787,33.44727c0,9.43542,9.03613,17.19348,21.75293,19.69775V78.01025C33.14,76.00934,27.31787,71.50769,27.31787,66.55273a4,4,0,0,0-8,0c0,9.43586,9.03613,17.194,21.75293,19.69825V92a3,3,0,0,0,6,0V87.0141c.96362.05853,1.9397.09186,2.92969.09186.98974,0,1.96557-.03327,2.92871-.0918V92a3,3,0,0,0,6,0V86.2511c12.717-2.50415,21.75293-10.26233,21.75293-19.69837C80.68213,57.11707,71.64624,49.359,58.9292,46.85486ZM50.00049,20.894c.98828,0,1.96521.043,2.92871.11878v25.079c-.96314-.05854-1.939-.0918-2.92871-.0918-.98865,0-1.96582-.043-2.92969-.11884V21.01288C48.03467,20.93707,49.01184,20.894,50.00049,20.894ZM27.31787,33.44727c0-4.955,5.82214-9.45661,13.75293-11.45752V44.90436C33.14,42.90356,27.31787,38.40222,27.31787,33.44727ZM50.00049,79.106c-.98865,0-1.96582-.043-2.92969-.11884v-25.079c.96362.05853,1.9397.09186,2.92969.09186.98828,0,1.96521.043,2.92871.11877V78.98718C51.9657,79.06293,50.98877,79.106,50.00049,79.106ZM58.9292,78.0105V55.0954c7.93091,2.00067,13.75293,6.5022,13.75293,11.45733S66.86011,76.00964,58.9292,78.0105Z"></path></svg>