<svg height='300px' width='300px'  fill="#a2a0a0" xmlns="http://www.w3.org/2000/svg" xmlns:xlink="http://www.w3.org/1999/xlink" xml:space="preserve" version="1.1" style="shape-rendering:geometricPrecision;text-rendering:geometricPrecision;image-rendering:optimizeQuality;" viewBox="0 0 847 847" x="0px" y="0px" fill-rule="evenodd" clip-rule="evenodd"><defs><style type="text/css">
   
    .fil0 {fill:#323030}
   
  </style></defs><g><path class="fil0" d="M532 482l16 16c14,-1 29,4 39,15l222 222c21,20 21,54 0,74 -20,21 -54,21 -74,0l-222 -222c-11,-10 -16,-25 -15,-39l-16 -16c-112,88 -274,79 -376,-24 -112,-111 -112,-291 0,-402 111,-112 291,-112 402,0 103,102 111,264 24,376zm-369 -319c-79,80 -79,208 0,288 80,79 208,79 288,0 79,-80 79,-208 0,-288 -80,-79 -208,-79 -288,0z"></path></g></svg>