<svg height='300px' width='300px'  fill="#8c2223" xmlns="http://www.w3.org/2000/svg" xmlns:xlink="http://www.w3.org/1999/xlink" version="1.1" x="0px" y="0px" viewBox="0 0 100 100" enable-background="new 0 0 100 100" xml:space="preserve"><g display="none"><rect x="-180.877" y="-397.172" display="inline" fill="#8c2223" width="1370.931" height="1263.231"></rect></g><g display="none" opacity="0.31"><g display="inline"><path d="M69.186,30.567c0-10.579-8.607-19.186-19.186-19.186s-19.186,8.607-19.186,19.186S39.421,49.753,50,49.753    S69.186,41.146,69.186,30.567z M33.784,30.567c0-8.942,7.274-16.216,16.216-16.216s16.216,7.274,16.216,16.216    c0,4.105-1.546,7.847-4.069,10.707c-1.774-3.173-5.098-5.294-8.797-5.483c2.784-1.276,4.726-4.082,4.726-7.339    c0-4.453-3.623-8.076-8.076-8.076s-8.076,3.623-8.076,8.076c0,3.256,1.94,6.06,4.722,7.337c-3.701,0.172-7.035,2.286-8.818,5.457    C35.318,38.39,33.784,34.659,33.784,30.567z M44.893,28.452c0-2.816,2.291-5.107,5.107-5.107s5.107,2.291,5.107,5.107    S52.816,33.559,50,33.559S44.893,31.268,44.893,28.452z M50,46.784c-3.732,0-7.164-1.28-9.908-3.407    c1.212-2.768,3.973-4.638,7.04-4.638h5.682c3.083,0,5.852,1.88,7.063,4.661C57.138,45.512,53.719,46.784,50,46.784z"></path><path d="M24.186,88.618c10.579,0,19.186-8.607,19.186-19.186s-8.607-19.186-19.186-19.186S5,58.854,5,69.433    S13.607,88.618,24.186,88.618z M24.186,85.649c-3.733,0-7.165-1.28-9.908-3.408c1.213-2.768,3.973-4.638,7.04-4.638H27    c3.083,0,5.852,1.88,7.063,4.661C31.324,84.378,27.904,85.649,24.186,85.649z M19.079,67.317c0-2.816,2.291-5.107,5.107-5.107    s5.107,2.291,5.107,5.107c0,2.816-2.291,5.107-5.107,5.107S19.079,70.133,19.079,67.317z M24.186,53.216    c8.942,0,16.216,7.274,16.216,16.216c0,4.105-1.546,7.847-4.069,10.707c-1.774-3.173-5.098-5.294-8.797-5.483    c2.784-1.276,4.726-4.082,4.726-7.339c0-4.453-3.623-8.077-8.076-8.077s-8.076,3.623-8.076,8.077c0,3.256,1.94,6.06,4.722,7.337    c-3.701,0.172-7.036,2.286-8.818,5.457C9.504,77.255,7.97,73.524,7.97,69.433C7.97,60.491,15.244,53.216,24.186,53.216z"></path><path d="M75.814,50.247c-10.579,0-19.186,8.607-19.186,19.186s8.607,19.186,19.186,19.186S95,80.012,95,69.433    S86.393,50.247,75.814,50.247z M75.814,85.649c-3.733,0-7.165-1.28-9.908-3.408c1.213-2.768,3.973-4.638,7.04-4.638h5.682    c3.083,0,5.852,1.88,7.063,4.661C82.952,84.378,79.533,85.649,75.814,85.649z M70.707,67.317c0-2.816,2.291-5.107,5.107-5.107    c2.816,0,5.107,2.291,5.107,5.107c0,2.816-2.291,5.107-5.107,5.107C72.998,72.424,70.707,70.133,70.707,67.317z M87.961,80.14    c-1.774-3.173-5.098-5.294-8.797-5.483c2.784-1.276,4.726-4.082,4.726-7.339c0-4.453-3.623-8.077-8.076-8.077    c-4.453,0-8.076,3.623-8.076,8.077c0,3.256,1.94,6.06,4.722,7.337c-3.701,0.172-7.036,2.286-8.818,5.457    c-2.509-2.856-4.044-6.588-4.044-10.679c0-8.942,7.274-16.216,16.216-16.216S92.03,60.491,92.03,69.433    C92.03,73.538,90.485,77.28,87.961,80.14z"></path></g></g><g><circle cx="77.744" cy="38.323" r="8.172"></circle><path d="M88.959,53.943c-3.659-0.803-7.431-1.206-11.206-1.206c-1.463,0-2.927,0.062-4.385,0.183   c-0.722,0.06-1.227,0.707-1.187,1.43c0.015,0.283,0.015,0.565-0.003,0.847c-0.329,4.418-0.658,8.918-0.986,13.507   c-0.172,2.34-1.016,4.619-2.301,6.591c0.446,0.203,0.903,0.355,1.365,0.432c2.942,0.426,5.971,0.597,8.98,0.517   c9.261-0.591,12.378-10.411,12.872-18.104C92.217,56.409,90.688,54.362,88.959,53.943z"></path><circle cx="22.255" cy="38.323" r="8.172"></circle><path d="M7.894,58.156c0.324,4.387,0.693,8.283,3.285,11.988c2.214,3.164,5.627,5.859,9.609,6.103   c2.962,0.084,5.995-0.089,8.972-0.521c0.458-0.078,0.91-0.229,1.352-0.43c-1.286-1.972-2.13-4.25-2.302-6.588   c-0.329-4.592-0.658-9.092-0.985-13.495c-0.018-0.288-0.019-0.576-0.003-0.864c0.04-0.723-0.465-1.369-1.187-1.429   c-1.452-0.121-2.911-0.182-4.37-0.182c-3.784,0-7.571,0.404-11.253,1.212C9.311,54.362,7.781,56.409,7.894,58.156z"></path><circle cx="50" cy="31.158" r="10.247"></circle><path d="M64.754,49.034c-4.817-1.058-9.78-1.587-14.747-1.587c-4.975,0-9.954,0.531-14.794,1.594   c-2.464,0.596-4.588,3.444-4.426,5.967c0.327,4.391,0.655,8.894,0.984,13.485c0.343,4.658,4.176,9.187,8.369,9.887   c6.525,0.946,13.174,0.946,19.731-0.002c4.188-0.708,8.012-5.232,8.355-9.887c0.329-4.589,0.657-9.092,0.985-13.498   C69.374,52.484,67.249,49.637,64.754,49.034z"></path></g></svg>